<svg width="35" height="36" viewBox="0 0 35 36" fill="none" xmlns="http://www.w3.org/2000/svg">
<g filter="url(#filter0_d_157_5435)">
<path d="M6.09188 10.0918C6.35276 10.0918 6.56653 9.89995 6.60277 9.62847C6.96146 7.21033 7.29118 6.87368 9.61731 6.60943C9.88544 6.57687 10.092 6.35243 10.092 6.09178C10.092 5.82753 9.88908 5.61035 9.62095 5.57053C7.3093 5.24836 7.02306 4.96601 6.60277 2.55152C6.55565 2.28365 6.34912 2.0918 6.09188 2.0918C5.82738 2.0918 5.61723 2.28365 5.57375 2.55514C5.2223 4.96963 4.89258 5.30627 2.57007 5.57053C2.2947 5.60673 2.0918 5.82393 2.0918 6.09178C2.0918 6.35243 2.28745 6.56963 2.56282 6.60943C4.87809 6.93884 5.1607 7.21757 5.57375 9.63207C5.6281 9.90355 5.83825 10.0918 6.09188 10.0918Z" fill="url(#paint0_linear_157_5435)"/>
<path d="M6.09188 10.0918C6.35276 10.0918 6.56653 9.89995 6.60277 9.62847C6.96146 7.21033 7.29118 6.87368 9.61731 6.60943C9.88544 6.57687 10.092 6.35243 10.092 6.09178C10.092 5.82753 9.88908 5.61035 9.62095 5.57053C7.3093 5.24836 7.02306 4.96601 6.60277 2.55152C6.55565 2.28365 6.34912 2.0918 6.09188 2.0918C5.82738 2.0918 5.61723 2.28365 5.57375 2.55514C5.2223 4.96963 4.89258 5.30627 2.57007 5.57053C2.2947 5.60673 2.0918 5.82393 2.0918 6.09178C2.0918 6.35243 2.28745 6.56963 2.56282 6.60943C4.87809 6.93884 5.1607 7.21757 5.57375 9.63207C5.6281 9.90355 5.83825 10.0918 6.09188 10.0918Z" stroke="url(#paint1_linear_157_5435)" stroke-width="0.181901"/>
</g>
<g filter="url(#filter1_d_157_5435)">
<path d="M18.0921 30.2773C18.8747 30.2773 19.516 29.7018 19.6248 28.8874C20.7008 21.6329 21.69 20.623 28.6684 19.8303C29.4728 19.7326 30.0924 19.0592 30.0924 18.2773C30.0924 17.4846 29.4837 16.833 28.6793 16.7135C21.7444 15.747 20.8856 14.9 19.6248 7.65652C19.4834 6.85291 18.8638 6.27734 18.0921 6.27734C17.2986 6.27734 16.6681 6.85291 16.5377 7.66738C15.4833 14.9108 14.4942 15.9208 7.52661 16.7135C6.70051 16.8221 6.0918 17.4738 6.0918 18.2773C6.0918 19.0592 6.67877 19.7109 7.50488 19.8303C14.4507 20.8185 15.2985 21.6547 16.5377 28.8982C16.7008 29.7126 17.3312 30.2773 18.0921 30.2773Z" fill="url(#paint2_linear_157_5435)"/>
<path d="M18.0921 30.2773C18.8747 30.2773 19.516 29.7018 19.6248 28.8874C20.7008 21.6329 21.69 20.623 28.6684 19.8303C29.4728 19.7326 30.0924 19.0592 30.0924 18.2773C30.0924 17.4846 29.4837 16.833 28.6793 16.7135C21.7444 15.747 20.8856 14.9 19.6248 7.65652C19.4834 6.85291 18.8638 6.27734 18.0921 6.27734C17.2986 6.27734 16.6681 6.85291 16.5377 7.66738C15.4833 14.9108 14.4942 15.9208 7.52661 16.7135C6.70051 16.8221 6.0918 17.4738 6.0918 18.2773C6.0918 19.0592 6.67877 19.7109 7.50488 19.8303C14.4507 20.8185 15.2985 21.6547 16.5377 28.8982C16.7008 29.7126 17.3312 30.2773 18.0921 30.2773Z" stroke="url(#paint3_linear_157_5435)" stroke-width="0.545704"/>
</g>
<g filter="url(#filter2_d_157_5435)">
<path d="M6.09188 33.0918C6.35276 33.0918 6.56653 32.9 6.60277 32.6285C6.96146 30.2103 7.29118 29.8737 9.61731 29.6094C9.88544 29.5769 10.092 29.3524 10.092 29.0918C10.092 28.8275 9.88908 28.6103 9.62095 28.5705C7.3093 28.2484 7.02306 27.966 6.60277 25.5515C6.55565 25.2837 6.34912 25.0918 6.09188 25.0918C5.82738 25.0918 5.61723 25.2837 5.57375 25.5551C5.2223 27.9696 4.89258 28.3063 2.57007 28.5705C2.2947 28.6067 2.0918 28.8239 2.0918 29.0918C2.0918 29.3524 2.28745 29.5696 2.56282 29.6094C4.87809 29.9388 5.1607 30.2176 5.57375 32.6321C5.6281 32.9036 5.83825 33.0918 6.09188 33.0918Z" fill="url(#paint4_linear_157_5435)"/>
<path d="M6.09188 33.0918C6.35276 33.0918 6.56653 32.9 6.60277 32.6285C6.96146 30.2103 7.29118 29.8737 9.61731 29.6094C9.88544 29.5769 10.092 29.3524 10.092 29.0918C10.092 28.8275 9.88908 28.6103 9.62095 28.5705C7.3093 28.2484 7.02306 27.966 6.60277 25.5515C6.55565 25.2837 6.34912 25.0918 6.09188 25.0918C5.82738 25.0918 5.61723 25.2837 5.57375 25.5551C5.2223 27.9696 4.89258 28.3063 2.57007 28.5705C2.2947 28.6067 2.0918 28.8239 2.0918 29.0918C2.0918 29.3524 2.28745 29.5696 2.56282 29.6094C4.87809 29.9388 5.1607 30.2176 5.57375 32.6321C5.6281 32.9036 5.83825 33.0918 6.09188 33.0918Z" stroke="url(#paint5_linear_157_5435)" stroke-width="0.181901"/>
</g>
<defs>
<filter id="filter0_d_157_5435" x="0" y="0" width="12.1836" height="12.1836" filterUnits="userSpaceOnUse" color-interpolation-filters="sRGB">
<feFlood flood-opacity="0" result="BackgroundImageFix"/>
<feColorMatrix in="SourceAlpha" type="matrix" values="0 0 0 0 0 0 0 0 0 0 0 0 0 0 0 0 0 0 127 0" result="hardAlpha"/>
<feOffset/>
<feGaussianBlur stdDeviation="1"/>
<feComposite in2="hardAlpha" operator="out"/>
<feColorMatrix type="matrix" values="0 0 0 0 0.0392157 0 0 0 0 0.486275 0 0 0 0 1 0 0 0 0.8 0"/>
<feBlend mode="normal" in2="BackgroundImageFix" result="effect1_dropShadow_157_5435"/>
<feBlend mode="normal" in="SourceGraphic" in2="effect1_dropShadow_157_5435" result="shape"/>
</filter>
<filter id="filter1_d_157_5435" x="1.81836" y="2.00391" width="32.5469" height="32.5469" filterUnits="userSpaceOnUse" color-interpolation-filters="sRGB">
<feFlood flood-opacity="0" result="BackgroundImageFix"/>
<feColorMatrix in="SourceAlpha" type="matrix" values="0 0 0 0 0 0 0 0 0 0 0 0 0 0 0 0 0 0 127 0" result="hardAlpha"/>
<feOffset/>
<feGaussianBlur stdDeviation="2"/>
<feComposite in2="hardAlpha" operator="out"/>
<feColorMatrix type="matrix" values="0 0 0 0 0.0392157 0 0 0 0 0.486275 0 0 0 0 1 0 0 0 0.8 0"/>
<feBlend mode="normal" in2="BackgroundImageFix" result="effect1_dropShadow_157_5435"/>
<feBlend mode="normal" in="SourceGraphic" in2="effect1_dropShadow_157_5435" result="shape"/>
</filter>
<filter id="filter2_d_157_5435" x="0" y="23" width="12.1836" height="12.1836" filterUnits="userSpaceOnUse" color-interpolation-filters="sRGB">
<feFlood flood-opacity="0" result="BackgroundImageFix"/>
<feColorMatrix in="SourceAlpha" type="matrix" values="0 0 0 0 0 0 0 0 0 0 0 0 0 0 0 0 0 0 127 0" result="hardAlpha"/>
<feOffset/>
<feGaussianBlur stdDeviation="1"/>
<feComposite in2="hardAlpha" operator="out"/>
<feColorMatrix type="matrix" values="0 0 0 0 0.0392157 0 0 0 0 0.486275 0 0 0 0 1 0 0 0 0.8 0"/>
<feBlend mode="normal" in2="BackgroundImageFix" result="effect1_dropShadow_157_5435"/>
<feBlend mode="normal" in="SourceGraphic" in2="effect1_dropShadow_157_5435" result="shape"/>
</filter>
<linearGradient id="paint0_linear_157_5435" x1="6.09188" y1="2.0918" x2="6.09188" y2="10.0918" gradientUnits="userSpaceOnUse">
<stop offset="0.404167" stop-color="#0A7CFF"/>
<stop offset="1" stop-color="white"/>
</linearGradient>
<linearGradient id="paint1_linear_157_5435" x1="3.3651" y1="1.36237" x2="9.54975" y2="9.366" gradientUnits="userSpaceOnUse">
<stop/>
<stop offset="0.0001" stop-color="#0A7CFF"/>
<stop offset="1" stop-color="white"/>
</linearGradient>
<linearGradient id="paint2_linear_157_5435" x1="18.0921" y1="6.27734" x2="18.0921" y2="30.2773" gradientUnits="userSpaceOnUse">
<stop offset="0.445833" stop-color="#0A7CFF"/>
<stop offset="1" stop-color="white"/>
</linearGradient>
<linearGradient id="paint3_linear_157_5435" x1="9.91173" y1="4.08905" x2="28.4657" y2="28.1" gradientUnits="userSpaceOnUse">
<stop/>
<stop offset="0.0001" stop-color="#0A7CFF"/>
<stop offset="1" stop-color="white"/>
</linearGradient>
<linearGradient id="paint4_linear_157_5435" x1="6.09188" y1="25.0918" x2="6.09188" y2="33.0918" gradientUnits="userSpaceOnUse">
<stop offset="0.404167" stop-color="#0A7CFF"/>
<stop offset="1" stop-color="white"/>
</linearGradient>
<linearGradient id="paint5_linear_157_5435" x1="3.3651" y1="24.3624" x2="9.54975" y2="32.366" gradientUnits="userSpaceOnUse">
<stop/>
<stop offset="0.0001" stop-color="#0A7CFF"/>
<stop offset="1" stop-color="white"/>
</linearGradient>
</defs>
</svg>
