<svg width="80" height="80" viewBox="0 0 80 80" fill="none" xmlns="http://www.w3.org/2000/svg">
<mask id="path-1-inside-1_88_1254" fill="white">
<path d="M0 40C0 17.9086 17.9086 0 40 0C62.0914 0 80 17.9086 80 40C80 62.0914 62.0914 80 40 80C17.9086 80 0 62.0914 0 40Z"/>
</mask>
<path d="M0 40C0 17.9086 17.9086 0 40 0C62.0914 0 80 17.9086 80 40C80 62.0914 62.0914 80 40 80C17.9086 80 0 62.0914 0 40Z" fill="white"/>
<path d="M0 40M80 40M80 40M0 40M40 0M80 40M40 80M0 40M40 80V76C20.1178 76 4 59.8823 4 40H0H-4C-4 64.3005 15.6995 84 40 84V80ZM80 40H76C76 59.8823 59.8823 76 40 76V80V84C64.3005 84 84 64.3005 84 40H80ZM40 0V4C59.8823 4 76 20.1178 76 40H80H84C84 15.6995 64.3005 -4 40 -4V0ZM40 0V-4C15.6995 -4 -4 15.6995 -4 40H0H4C4 20.1178 20.1178 4 40 4V0Z" fill="white" mask="url(#path-1-inside-1_88_1254)"/>
<rect x="12" y="12" width="56" height="56" rx="28" fill="#004799" fill-opacity="0.2"/>
<path d="M40.0192 55.7431C31.3466 55.7431 24.2838 48.695 24.2692 40.0201C24.2601 37.951 24.6617 35.9006 25.4507 33.9878C26.2398 32.075 27.4006 30.3378 28.8659 28.877L30.4601 30.4655C29.2042 31.7178 28.2093 33.2068 27.5328 34.8463C26.8564 36.4858 26.5118 38.2432 26.5192 40.0167C26.5174 41.7903 26.8675 43.5466 27.5492 45.184C28.2309 46.8213 29.2306 48.3072 30.4904 49.5556C31.7404 50.8081 33.2259 51.8009 34.8613 52.4767C36.4967 53.1525 38.2497 53.4979 40.0192 53.4931H40.0417C41.5275 53.4946 43.003 53.2466 44.4067 52.7596L45.1514 54.8836C43.5098 55.4538 41.7841 55.7443 40.0462 55.7431H40.0192Z" fill="#004799"/>
<path d="M38.875 40H41.125V44.5H43.375C43.9717 44.5 44.544 44.7371 44.966 45.159C45.3879 45.581 45.625 46.1533 45.625 46.75V50.125H43.375V46.75H41.125V50.125H38.875V46.75H36.625V50.125H34.375V46.75C34.375 46.1533 34.6121 45.581 35.034 45.159C35.456 44.7371 36.0283 44.5 36.625 44.5H38.875V40ZM47.875 51.25C48.1734 51.25 48.4595 51.3685 48.6705 51.5795C48.8815 51.7905 49 52.0766 49 52.375C49 52.6734 48.8815 52.9595 48.6705 53.1705C48.4595 53.3815 48.1734 53.5 47.875 53.5C47.5766 53.5 47.2905 53.3815 47.0795 53.1705C46.8685 52.9595 46.75 52.6734 46.75 52.375C46.75 52.0766 46.8685 51.7905 47.0795 51.5795C47.2905 51.3685 47.5766 51.25 47.875 51.25ZM32.125 26.5C32.4234 26.5 32.7095 26.6185 32.9205 26.8295C33.1315 27.0405 33.25 27.3266 33.25 27.625C33.25 27.9234 33.1315 28.2095 32.9205 28.4205C32.7095 28.6315 32.4234 28.75 32.125 28.75C31.8266 28.75 31.5405 28.6315 31.3295 28.4205C31.1185 28.2095 31 27.9234 31 27.625C31 27.3266 31.1185 27.0405 31.3295 26.8295C31.5405 26.6185 31.8266 26.5 32.125 26.5Z" fill="#004799"/>
<path d="M45.535 33.3692C45.0603 30.7457 42.7585 28.75 40 28.75C37.2415 28.75 34.9397 30.7457 34.465 33.3692C33.4794 33.6042 32.6016 34.1642 31.973 34.9589C31.3444 35.7536 31.0017 36.7368 31 37.75C31 40.2318 33.0182 42.25 35.5 42.25H36.625V40H35.5C34.2591 40 33.25 38.9909 33.25 37.75C33.25 36.5091 34.2591 35.5 35.5 35.5H36.625V34.375C36.625 32.5143 38.1392 31 40 31C41.8608 31 43.375 32.5143 43.375 34.375V35.5H44.5C45.7409 35.5 46.75 36.5103 46.75 37.75C46.75 38.9897 45.7409 40 44.5 40H43.375V42.25H44.5C46.9818 42.25 49 40.2318 49 37.75C48.9983 36.7368 48.6556 35.7536 48.027 34.9589C47.3984 34.1642 46.5206 33.6042 45.535 33.3692Z" fill="#004799"/>
<path d="M51.1375 51.1255L49.5467 49.5337C50.8045 48.2836 51.8018 46.7964 52.4809 45.1583C53.1601 43.5202 53.5076 41.7636 53.5033 39.9903C53.5033 32.5473 47.4475 26.4903 40.0033 26.4903C38.4846 26.4903 37.0165 26.7344 35.6372 27.2148L34.897 25.0908C36.5395 24.5235 38.2656 24.236 40.0033 24.2403C48.6883 24.2403 55.7533 31.3053 55.7533 39.9903C55.7533 44.1944 54.1142 48.1488 51.1375 51.1255Z" fill="#004799"/>
</svg>
