<svg width="80" height="80" viewBox="0 0 80 80" fill="none" xmlns="http://www.w3.org/2000/svg">
<mask id="path-1-inside-1_88_1266" fill="white">
<path d="M0 40C0 17.9086 17.9086 0 40 0V0C62.0914 0 80 17.9086 80 40V40C80 62.0914 62.0914 80 40 80V80C17.9086 80 0 62.0914 0 40V40Z"/>
</mask>
<path d="M0 40C0 17.9086 17.9086 0 40 0V0C62.0914 0 80 17.9086 80 40V40C80 62.0914 62.0914 80 40 80V80C17.9086 80 0 62.0914 0 40V40Z" fill="white"/>
<path d="M0 40M80 40M80 40M0 40M40 0M80 40M40 80M0 40M40 80V76C20.1178 76 4 59.8823 4 40H0H-4C-4 64.3005 15.6995 84 40 84V80ZM80 40H76C76 59.8823 59.8823 76 40 76V80V84C64.3005 84 84 64.3005 84 40H80ZM40 0V4C59.8823 4 76 20.1178 76 40H80H84C84 15.6995 64.3005 -4 40 -4V0ZM40 0V-4C15.6995 -4 -4 15.6995 -4 40H0H4C4 20.1178 20.1178 4 40 4V0Z" fill="white" mask="url(#path-1-inside-1_88_1266)"/>
<rect x="12" y="12" width="56" height="56" rx="28" fill="#004799" fill-opacity="0.2"/>
<path d="M36.115 52H31.75C29.5 52 27.52 51.25 25.915 49.645C24.31 48.07 23.5 46.135 23.5 43.87C23.5 41.92 24.085 40.18 25.255 38.65C26.3962 37.1545 28.0351 36.1169 29.875 35.725C30.505 33.43 31.75 31.57 33.625 30.145C35.5 28.75 37.63 28 40 28C42.925 28 45.415 29.02 47.44 31.06C49.48 33.085 50.5 35.575 50.5 38.5C52.225 38.695 53.665 39.445 54.79 40.75C55.75 41.845 56.29 43.09 56.44 44.5H53.44C53.29 43.75 52.96 43.135 52.405 42.595C51.685 41.86 50.8 41.5 49.75 41.5H47.5V38.5C47.5 36.43 46.75 34.66 45.31 33.19C43.855 31.75 42.085 31 40 31C37.93 31 36.16 31.75 34.69 33.19C33.25 34.66 32.5 36.43 32.5 38.5H31.75C30.295 38.5 29.065 39.01 28.045 40.045C27.01 41.065 26.5 42.295 26.5 43.75C26.5 45.205 27.01 46.45 28.045 47.5C29.065 48.505 30.295 49 31.75 49H35.5C35.5 50.08 35.725 51.085 36.115 52ZM56.5 47.5V50.5H53.5V53.5H50.5V50.5H47.2C46.6 52.3 44.95 53.5 43 53.5C40.45 53.5 38.5 51.55 38.5 49C38.5 46.45 40.45 44.5 43 44.5C44.95 44.5 46.6 45.7 47.2 47.5H56.5ZM44.5 49C44.5 48.25 43.9 47.5 43 47.5C42.1 47.5 41.5 48.25 41.5 49C41.5 49.75 42.1 50.5 43 50.5C43.9 50.5 44.5 49.75 44.5 49Z" fill="#004799"/>
</svg>
