<svg width="620" height="661" viewBox="0 0 620 661" fill="none" xmlns="http://www.w3.org/2000/svg">
<path d="M25.833 0.645508H594.167C608.077 0.645673 619.354 11.9226 619.354 25.833V634.208C619.354 648.119 608.078 659.395 594.167 659.396H25.833C11.9225 659.395 0.645508 648.119 0.645508 634.208V25.833C0.645694 11.9226 11.9226 0.645683 25.833 0.645508Z" fill="#F8FAFC"/>
<path d="M25.833 0.645508H594.167C608.077 0.645673 619.354 11.9226 619.354 25.833V634.208C619.354 648.119 608.078 659.395 594.167 659.396H25.833C11.9225 659.395 0.645508 648.119 0.645508 634.208V25.833C0.645694 11.9226 11.9226 0.645683 25.833 0.645508Z" stroke="#E2E8F0" stroke-width="1.29167"/>
<path d="M63.292 53.6025H175.667C183.871 53.6025 190.521 60.2533 190.521 68.457C190.521 76.6608 183.871 83.3115 175.667 83.3115H63.292C55.0883 83.3115 48.4375 76.6608 48.4375 68.457C48.4375 60.2533 55.0883 53.6025 63.292 53.6025Z" fill="#ECFDF5"/>
<path d="M63.292 53.6025H175.667C183.871 53.6025 190.521 60.2533 190.521 68.457C190.521 76.6608 183.871 83.3115 175.667 83.3115H63.292C55.0883 83.3115 48.4375 76.6608 48.4375 68.457C48.4375 60.2533 55.0883 53.6025 63.292 53.6025Z" stroke="#A7F3D0" stroke-width="1.29167"/>
<g opacity="0.491479">
<path d="M64.583 68.457C64.583 66.3169 66.3179 64.582 68.458 64.582C70.5981 64.582 72.333 66.3169 72.333 68.457C72.333 70.5971 70.5981 72.332 68.458 72.332C66.3179 72.332 64.583 70.5971 64.583 68.457Z" fill="#10B981"/>
</g>
<path d="M91.9505 68.266C91.9505 69.5633 91.7163 70.6844 91.2479 71.6293C90.7794 72.5742 90.1368 73.3029 89.32 73.8154C88.5032 74.3279 87.5703 74.5842 86.5213 74.5842C85.4722 74.5842 84.5393 74.3279 83.7225 73.8154C82.9057 73.3029 82.2631 72.5742 81.7947 71.6293C81.3262 70.6844 81.092 69.5633 81.092 68.266C81.092 66.9688 81.3262 65.8477 81.7947 64.9028C82.2631 63.9579 82.9057 63.2291 83.7225 62.7167C84.5393 62.2042 85.4722 61.9479 86.5213 61.9479C87.5703 61.9479 88.5032 62.2042 89.32 62.7167C90.1368 63.2291 90.7794 63.9579 91.2479 64.9028C91.7163 65.8477 91.9505 66.9688 91.9505 68.266ZM90.5091 68.266C90.5091 67.201 90.331 66.3021 89.9746 65.5694C89.6223 64.8367 89.1438 64.2822 88.5392 63.9058C87.9386 63.5294 87.266 63.3413 86.5213 63.3413C85.7765 63.3413 85.1019 63.5294 84.4973 63.9058C83.8967 64.2822 83.4182 64.8367 83.0619 65.5694C82.7096 66.3021 82.5334 67.201 82.5334 68.266C82.5334 69.3311 82.7096 70.2299 83.0619 70.9627C83.4182 71.6954 83.8967 72.2499 84.4973 72.6263C85.1019 73.0026 85.7765 73.1908 86.5213 73.1908C87.266 73.1908 87.9386 73.0026 88.5392 72.6263C89.1438 72.2499 89.6223 71.6954 89.9746 70.9627C90.331 70.2299 90.5091 69.3311 90.5091 68.266ZM94.2628 77.8754V65.1911H95.6321V66.6565H95.8003C95.9044 66.4963 96.0485 66.2921 96.2327 66.0439C96.4209 65.7916 96.6891 65.5674 97.0375 65.3712C97.3898 65.171 97.8663 65.0709 98.4669 65.0709C99.2436 65.0709 99.9283 65.2651 100.521 65.6535C101.113 66.0419 101.576 66.5924 101.908 67.3051C102.241 68.0178 102.407 68.8586 102.407 69.8276C102.407 70.8045 102.241 71.6513 101.908 72.368C101.576 73.0807 101.115 73.6333 100.527 74.0256C99.9383 74.414 99.2596 74.6082 98.4909 74.6082C97.8983 74.6082 97.4239 74.5101 97.0675 74.3139C96.7112 74.1137 96.4369 73.8875 96.2447 73.6353C96.0525 73.379 95.9044 73.1668 95.8003 72.9986H95.6802V77.8754H94.2628ZM95.6561 69.8035C95.6561 70.5002 95.7582 71.1148 95.9624 71.6473C96.1666 72.1758 96.4649 72.5902 96.8573 72.8905C97.2497 73.1868 97.7301 73.335 98.2987 73.335C98.8913 73.335 99.3858 73.1788 99.7821 72.8665C100.183 72.5502 100.483 72.1258 100.683 71.5933C100.887 71.0568 100.989 70.4602 100.989 69.8035C100.989 69.1549 100.889 68.5703 100.689 68.0498C100.493 67.5253 100.195 67.1109 99.7942 66.8066C99.3978 66.4983 98.8993 66.3442 98.2987 66.3442C97.7221 66.3442 97.2377 66.4903 96.8453 66.7826C96.4529 67.0709 96.1566 67.4753 95.9564 67.9958C95.7562 68.5123 95.6561 69.1149 95.6561 69.8035ZM108.437 74.6082C107.548 74.6082 106.781 74.412 106.136 74.0196C105.496 73.6232 105.001 73.0707 104.653 72.362C104.309 71.6493 104.136 70.8205 104.136 69.8756C104.136 68.9307 104.309 68.0979 104.653 67.3772C105.001 66.6525 105.486 66.0879 106.106 65.6835C106.731 65.2751 107.46 65.0709 108.292 65.0709C108.773 65.0709 109.247 65.151 109.716 65.3112C110.184 65.4713 110.611 65.7316 110.995 66.0919C111.379 66.4483 111.686 66.9207 111.914 67.5093C112.142 68.0979 112.256 68.8226 112.256 69.6834V70.284H105.145V69.0588H110.815C110.815 68.5383 110.711 68.0739 110.503 67.6655C110.298 67.2571 110.006 66.9347 109.626 66.6985C109.249 66.4623 108.805 66.3442 108.292 66.3442C107.728 66.3442 107.239 66.4843 106.827 66.7646C106.419 67.0409 106.104 67.4012 105.884 67.8456C105.664 68.2901 105.554 68.7665 105.554 69.275V70.0918C105.554 70.7885 105.674 71.3791 105.914 71.8635C106.158 72.344 106.497 72.7104 106.929 72.9626C107.362 73.2108 107.864 73.335 108.437 73.335C108.809 73.335 109.145 73.2829 109.446 73.1788C109.75 73.0707 110.012 72.9106 110.232 72.6983C110.453 72.4821 110.623 72.2139 110.743 71.8936L112.112 72.2779C111.968 72.7424 111.726 73.1508 111.385 73.5031C111.045 73.8515 110.625 74.1237 110.124 74.3199C109.624 74.5121 109.061 74.6082 108.437 74.6082ZM114.412 74.416V65.1911H115.782V66.5844H115.878C116.046 66.128 116.35 65.7576 116.791 65.4733C117.231 65.1891 117.728 65.0469 118.28 65.0469C118.384 65.0469 118.514 65.0489 118.67 65.0529C118.827 65.0569 118.945 65.0629 119.025 65.0709V66.5123C118.977 66.5003 118.867 66.4823 118.695 66.4583C118.526 66.4303 118.348 66.4162 118.16 66.4162C117.712 66.4162 117.311 66.5103 116.959 66.6985C116.61 66.8827 116.334 67.1389 116.13 67.4673C115.93 67.7916 115.83 68.1619 115.83 68.5783V74.416H114.412ZM123.42 74.6322C122.835 74.6322 122.305 74.5221 121.828 74.3019C121.352 74.0777 120.973 73.7554 120.693 73.335C120.413 72.9106 120.273 72.3981 120.273 71.7975C120.273 71.269 120.377 70.8405 120.585 70.5122C120.793 70.1799 121.071 69.9196 121.42 69.7315C121.768 69.5433 122.152 69.4031 122.573 69.3111C122.997 69.215 123.424 69.1389 123.852 69.0828C124.413 69.0108 124.867 68.9567 125.215 68.9207C125.568 68.8806 125.824 68.8146 125.984 68.7225C126.148 68.6304 126.23 68.4702 126.23 68.242V68.194C126.23 67.6014 126.068 67.1409 125.744 66.8126C125.424 66.4843 124.937 66.3202 124.284 66.3202C123.608 66.3202 123.077 66.4683 122.693 66.7646C122.309 67.0609 122.038 67.3772 121.882 67.7135L120.537 67.233C120.777 66.6725 121.097 66.2361 121.498 65.9238C121.902 65.6075 122.343 65.3872 122.819 65.2631C123.299 65.135 123.772 65.0709 124.236 65.0709C124.533 65.0709 124.873 65.107 125.257 65.179C125.646 65.2471 126.02 65.3892 126.38 65.6055C126.745 65.8217 127.047 66.148 127.287 66.5844C127.528 67.0208 127.648 67.6054 127.648 68.3381V74.416H126.23V73.1668H126.158C126.062 73.367 125.902 73.5812 125.678 73.8094C125.454 74.0376 125.155 74.2318 124.783 74.392C124.411 74.5521 123.956 74.6322 123.42 74.6322ZM123.636 73.359C124.196 73.359 124.669 73.2489 125.053 73.0287C125.442 72.8085 125.734 72.5242 125.93 72.1758C126.13 71.8275 126.23 71.4611 126.23 71.0768V69.7795C126.17 69.8516 126.038 69.9176 125.834 69.9777C125.634 70.0338 125.402 70.0838 125.137 70.1278C124.877 70.1679 124.623 70.2039 124.375 70.236C124.13 70.264 123.932 70.288 123.78 70.308C123.412 70.3561 123.067 70.4341 122.747 70.5423C122.431 70.6464 122.174 70.8045 121.978 71.0167C121.786 71.2249 121.69 71.5092 121.69 71.8695C121.69 72.362 121.872 72.7344 122.236 72.9866C122.605 73.2349 123.071 73.359 123.636 73.359ZM134.247 65.1911V66.3922H129.466V65.1911H134.247ZM130.859 62.9809H132.277V71.7734C132.277 72.1738 132.335 72.4741 132.451 72.6743C132.571 72.8705 132.723 73.0026 132.907 73.0707C133.096 73.1348 133.294 73.1668 133.502 73.1668C133.658 73.1668 133.786 73.1588 133.886 73.1428C133.986 73.1228 134.066 73.1067 134.127 73.0947L134.415 74.368C134.319 74.404 134.185 74.44 134.012 74.4761C133.84 74.5161 133.622 74.5361 133.358 74.5361C132.957 74.5361 132.565 74.45 132.181 74.2779C131.8 74.1057 131.484 73.8435 131.232 73.4911C130.983 73.1388 130.859 72.6943 130.859 72.1578V62.9809ZM136.379 74.416V65.1911H137.796V74.416H136.379ZM137.099 63.6536C136.823 63.6536 136.585 63.5595 136.385 63.3713C136.189 63.1831 136.09 62.9569 136.09 62.6926C136.09 62.4284 136.189 62.2022 136.385 62.014C136.585 61.8258 136.823 61.7317 137.099 61.7317C137.376 61.7317 137.612 61.8258 137.808 62.014C138.008 62.2022 138.108 62.4284 138.108 62.6926C138.108 62.9569 138.008 63.1831 137.808 63.3713C137.612 63.5595 137.376 63.6536 137.099 63.6536ZM144.14 74.6082C143.307 74.6082 142.576 74.41 141.948 74.0136C141.323 73.6172 140.835 73.0627 140.482 72.35C140.134 71.6373 139.96 70.8045 139.96 69.8516C139.96 68.8906 140.134 68.0518 140.482 67.3351C140.835 66.6184 141.323 66.0619 141.948 65.6655C142.576 65.2691 143.307 65.0709 144.14 65.0709C144.973 65.0709 145.701 65.2691 146.326 65.6655C146.954 66.0619 147.443 66.6184 147.791 67.3351C148.144 68.0518 148.32 68.8906 148.32 69.8516C148.32 70.8045 148.144 71.6373 147.791 72.35C147.443 73.0627 146.954 73.6172 146.326 74.0136C145.701 74.41 144.973 74.6082 144.14 74.6082ZM144.14 73.335C144.772 73.335 145.293 73.1728 145.701 72.8485C146.11 72.5242 146.412 72.0978 146.608 71.5693C146.804 71.0407 146.902 70.4682 146.902 69.8516C146.902 69.235 146.804 68.6604 146.608 68.1279C146.412 67.5954 146.11 67.165 145.701 66.8367C145.293 66.5083 144.772 66.3442 144.14 66.3442C143.507 66.3442 142.987 66.5083 142.578 66.8367C142.17 67.165 141.868 67.5954 141.671 68.1279C141.475 68.6604 141.377 69.235 141.377 69.8516C141.377 70.4682 141.475 71.0407 141.671 71.5693C141.868 72.0978 142.17 72.5242 142.578 72.8485C142.987 73.1728 143.507 73.335 144.14 73.335ZM151.901 68.8666V74.416H150.483V65.1911H151.853V66.6325H151.973C152.189 66.164 152.517 65.7876 152.958 65.5034C153.398 65.2151 153.967 65.0709 154.663 65.0709C155.288 65.0709 155.835 65.1991 156.303 65.4553C156.772 65.7076 157.136 66.0919 157.396 66.6084C157.656 67.1209 157.786 67.7696 157.786 68.5543V74.416H156.369V68.6504C156.369 67.9257 156.181 67.3612 155.805 66.9568C155.428 66.5484 154.912 66.3442 154.255 66.3442C153.803 66.3442 153.398 66.4423 153.042 66.6385C152.69 66.8347 152.411 67.1209 152.207 67.4973C152.003 67.8737 151.901 68.3301 151.901 68.8666ZM163.091 74.6322C162.507 74.6322 161.976 74.5221 161.5 74.3019C161.023 74.0777 160.645 73.7554 160.364 73.335C160.084 72.9106 159.944 72.3981 159.944 71.7975C159.944 71.269 160.048 70.8405 160.256 70.5122C160.465 70.1799 160.743 69.9196 161.091 69.7315C161.44 69.5433 161.824 69.4031 162.244 69.3111C162.669 69.215 163.095 69.1389 163.524 69.0828C164.084 69.0108 164.539 68.9567 164.887 68.9207C165.239 68.8806 165.495 68.8146 165.656 68.7225C165.82 68.6304 165.902 68.4702 165.902 68.242V68.194C165.902 67.6014 165.74 67.1409 165.415 66.8126C165.095 66.4843 164.609 66.3202 163.956 66.3202C163.279 66.3202 162.749 66.4683 162.364 66.7646C161.98 67.0609 161.71 67.3772 161.554 67.7135L160.208 67.233C160.449 66.6725 160.769 66.2361 161.169 65.9238C161.574 65.6075 162.014 65.3872 162.491 65.2631C162.971 65.135 163.443 65.0709 163.908 65.0709C164.204 65.0709 164.545 65.107 164.929 65.179C165.317 65.2471 165.692 65.3892 166.052 65.6055C166.416 65.8217 166.719 66.148 166.959 66.5844C167.199 67.0208 167.319 67.6054 167.319 68.3381V74.416H165.902V73.1668H165.83C165.734 73.367 165.574 73.5812 165.349 73.8094C165.125 74.0376 164.827 74.2318 164.454 74.392C164.082 74.5521 163.628 74.6322 163.091 74.6322ZM163.307 73.359C163.868 73.359 164.34 73.2489 164.725 73.0287C165.113 72.8085 165.405 72.5242 165.602 72.1758C165.802 71.8275 165.902 71.4611 165.902 71.0768V69.7795C165.842 69.8516 165.71 69.9176 165.505 69.9777C165.305 70.0338 165.073 70.0838 164.809 70.1278C164.549 70.1679 164.294 70.2039 164.046 70.236C163.802 70.264 163.604 70.288 163.451 70.308C163.083 70.3561 162.739 70.4341 162.418 70.5423C162.102 70.6464 161.846 70.8045 161.65 71.0167C161.458 71.2249 161.361 71.5092 161.361 71.8695C161.361 72.362 161.544 72.7344 161.908 72.9866C162.276 73.2349 162.743 73.359 163.307 73.359ZM171.324 62.1161V74.416H169.906V62.1161H171.324Z" fill="#065F46"/>
<path d="M429.274 73.7695V62.7502H431.604V71.8487H436.328V73.7695H429.274ZM445.297 62.7502H447.627V69.9063C447.627 70.7098 447.435 71.4129 447.051 72.0155C446.671 72.6181 446.138 73.088 445.453 73.4252C444.768 73.7588 443.97 73.9256 443.059 73.9256C442.144 73.9256 441.344 73.7588 440.659 73.4252C439.974 73.088 439.441 72.6181 439.061 72.0155C438.681 71.4129 438.491 70.7098 438.491 69.9063V62.7502H440.821V69.7072C440.821 70.1269 440.912 70.5 441.095 70.8264C441.282 71.1528 441.543 71.4093 441.881 71.5958C442.218 71.7823 442.611 71.8756 443.059 71.8756C443.511 71.8756 443.904 71.7823 444.237 71.5958C444.574 71.4093 444.835 71.1528 445.017 70.8264C445.204 70.5 445.297 70.1269 445.297 69.7072V62.7502ZM459.886 66.608H457.53C457.487 66.3031 457.399 66.0323 457.266 65.7956C457.133 65.5552 456.963 65.3508 456.755 65.1822C456.547 65.0136 456.307 64.8845 456.034 64.7948C455.765 64.7051 455.473 64.6603 455.157 64.6603C454.587 64.6603 454.09 64.802 453.667 65.0853C453.243 65.3651 452.915 65.7741 452.682 66.3121C452.449 66.8466 452.332 67.4958 452.332 68.2599C452.332 69.0454 452.449 69.7054 452.682 70.2399C452.919 70.7744 453.249 71.1779 453.672 71.4505C454.095 71.7231 454.585 71.8594 455.141 71.8594C455.453 71.8594 455.742 71.8182 456.007 71.7357C456.276 71.6532 456.515 71.533 456.723 71.3752C456.931 71.2138 457.103 71.0183 457.239 70.7887C457.379 70.5591 457.476 70.2973 457.53 70.0032L459.886 70.0139C459.826 70.5197 459.673 71.0075 459.429 71.4774C459.189 71.9437 458.864 72.3616 458.455 72.7311C458.05 73.097 457.566 73.3875 457.003 73.6027C456.443 73.8144 455.81 73.9202 455.103 73.9202C454.12 73.9202 453.242 73.6978 452.467 73.253C451.696 72.8082 451.086 72.1643 450.637 71.3214C450.193 70.4784 449.97 69.4579 449.97 68.2599C449.97 67.0582 450.196 66.0359 450.648 65.193C451.1 64.35 451.713 63.7079 452.488 63.2667C453.263 62.8219 454.135 62.5995 455.103 62.5995C455.742 62.5995 456.334 62.6892 456.879 62.8686C457.428 63.0479 457.914 63.3098 458.337 63.6541C458.76 63.9949 459.105 64.4128 459.37 64.9078C459.639 65.4028 459.811 65.9695 459.886 66.608ZM462.177 73.7695V62.7502H464.507V67.6088H464.652L468.618 62.7502H471.41L467.321 67.6841L471.459 73.7695H468.671L465.653 69.2391L464.507 70.6381V73.7695H462.177ZM475.573 62.7502V73.7695H473.243V62.7502H475.573ZM478.11 73.7695V62.7502H482.522C483.333 62.7502 484.009 62.8704 484.551 63.1107C485.092 63.351 485.499 63.6846 485.772 64.1115C486.045 64.5347 486.181 65.0226 486.181 65.575C486.181 66.0054 486.095 66.3838 485.923 66.7103C485.75 67.0331 485.514 67.2985 485.212 67.5066C484.915 67.711 484.574 67.8563 484.19 67.9424V68.05C484.61 68.068 485.003 68.1863 485.368 68.4051C485.738 68.6239 486.037 68.9306 486.267 69.3252C486.497 69.7162 486.611 70.1825 486.611 70.7241C486.611 71.3088 486.466 71.8307 486.175 72.2899C485.889 72.7454 485.463 73.1059 484.9 73.3714C484.337 73.6368 483.643 73.7695 482.818 73.7695H478.11ZM480.44 71.8648H482.339C482.988 71.8648 483.462 71.7411 483.76 71.4936C484.057 71.2425 484.206 70.9089 484.206 70.4928C484.206 70.1879 484.133 69.9189 483.986 69.6857C483.839 69.4525 483.629 69.2696 483.356 69.1369C483.087 69.0042 482.766 68.9378 482.393 68.9378H480.44V71.8648ZM480.44 67.3613H482.167C482.486 67.3613 482.77 67.3057 483.017 67.1945C483.268 67.0797 483.465 66.9183 483.609 66.7103C483.756 66.5022 483.83 66.2529 483.83 65.9624C483.83 65.5642 483.688 65.2432 483.404 64.9993C483.125 64.7553 482.727 64.6334 482.21 64.6334H480.44V67.3613ZM498.873 68.2599C498.873 69.4615 498.646 70.4838 498.19 71.3268C497.738 72.1697 497.121 72.8136 496.339 73.2584C495.561 73.6996 494.686 73.9202 493.713 73.9202C492.734 73.9202 491.855 73.6978 491.077 73.253C490.299 72.8082 489.683 72.1643 489.232 71.3214C488.78 70.4784 488.554 69.4579 488.554 68.2599C488.554 67.0582 488.78 66.0359 489.232 65.193C489.683 64.35 490.299 63.7079 491.077 63.2667C491.855 62.8219 492.734 62.5995 493.713 62.5995C494.686 62.5995 495.561 62.8219 496.339 63.2667C497.121 63.7079 497.738 64.35 498.19 65.193C498.646 66.0359 498.873 67.0582 498.873 68.2599ZM496.511 68.2599C496.511 67.4815 496.395 66.8251 496.162 66.2906C495.932 65.7561 495.607 65.3508 495.188 65.0746C494.768 64.7984 494.277 64.6603 493.713 64.6603C493.15 64.6603 492.659 64.7984 492.239 65.0746C491.82 65.3508 491.493 65.7561 491.26 66.2906C491.03 66.8251 490.916 67.4815 490.916 68.2599C490.916 69.0382 491.03 69.6947 491.26 70.2291C491.493 70.7636 491.82 71.1689 492.239 71.4451C492.659 71.7213 493.15 71.8594 493.713 71.8594C494.277 71.8594 494.768 71.7213 495.188 71.4451C495.607 71.1689 495.932 70.7636 496.162 70.2291C496.395 69.6947 496.511 69.0382 496.511 68.2599ZM500.296 64.671V62.7502H509.347V64.671H505.973V73.7695H503.67V64.671H500.296ZM516.88 70.2345C516.525 70.2345 516.22 70.109 515.966 69.8579C515.715 69.6032 515.589 69.2983 515.589 68.9432C515.589 68.5917 515.715 68.2904 515.966 68.0393C516.22 67.7882 516.525 67.6626 516.88 67.6626C517.225 67.6626 517.526 67.7882 517.784 68.0393C518.043 68.2904 518.172 68.5917 518.172 68.9432C518.172 69.1799 518.111 69.3969 517.989 69.5942C517.87 69.7879 517.714 69.944 517.521 70.0623C517.327 70.1771 517.114 70.2345 516.88 70.2345ZM532.15 66.3121C532.075 66.0503 531.969 65.8189 531.833 65.618C531.696 65.4136 531.53 65.2414 531.332 65.1015C531.139 64.958 530.916 64.8486 530.665 64.7733C530.418 64.6979 530.143 64.6603 529.842 64.6603C529.279 64.6603 528.784 64.8002 528.357 65.08C527.934 65.3598 527.604 65.7669 527.367 66.3013C527.13 66.8322 527.012 67.4815 527.012 68.2491C527.012 69.0167 527.128 69.6696 527.361 70.2076C527.595 70.7457 527.925 71.1564 528.352 71.4398C528.778 71.7195 529.282 71.8594 529.863 71.8594C530.391 71.8594 530.841 71.7662 531.214 71.5797C531.591 71.3895 531.878 71.1223 532.075 70.778C532.276 70.4336 532.376 70.0265 532.376 69.5566L532.85 69.6265H530.009V67.8725H534.62V69.2606C534.62 70.2291 534.415 71.0613 534.006 71.7572C533.598 72.4495 533.034 72.984 532.317 73.3606C531.6 73.7337 530.778 73.9202 529.853 73.9202C528.82 73.9202 527.912 73.6924 527.13 73.2369C526.348 72.7777 525.738 72.1267 525.301 71.2837C524.867 70.4372 524.65 69.4328 524.65 68.2706C524.65 67.3775 524.779 66.5811 525.037 65.8817C525.299 65.1786 525.665 64.5832 526.135 64.0953C526.605 63.6075 527.152 63.2362 527.776 62.9816C528.4 62.7269 529.076 62.5995 529.804 62.5995C530.428 62.5995 531.009 62.691 531.548 62.8739C532.086 63.0533 532.563 63.308 532.979 63.638C533.398 63.968 533.741 64.3608 534.006 64.8163C534.272 65.2683 534.442 65.7669 534.518 66.3121H532.15ZM536.99 73.7695V62.7502H544.415V64.671H539.32V67.2967H544.033V69.2176H539.32V71.8487H544.437V73.7695H536.99ZM556.104 62.7502V73.7695H554.092L549.298 66.834H549.217V73.7695H546.887V62.7502H548.932L553.688 69.6803H553.785V62.7502H556.104ZM562.711 73.7695V72.0908L566.634 68.4589C566.967 68.1361 567.247 67.8456 567.473 67.5873C567.703 67.329 567.876 67.0761 567.995 66.8286C568.113 66.5775 568.172 66.3067 568.172 66.0162C568.172 65.6933 568.099 65.4154 567.952 65.1822C567.805 64.9455 567.604 64.7643 567.349 64.6388C567.095 64.5096 566.806 64.4451 566.483 64.4451C566.146 64.4451 565.852 64.5132 565.601 64.6495C565.349 64.7858 565.156 64.9813 565.019 65.236C564.883 65.4907 564.815 65.7938 564.815 66.1453H562.604C562.604 65.4243 562.767 64.7984 563.093 64.2675C563.42 63.7366 563.877 63.3259 564.465 63.0354C565.054 62.7448 565.731 62.5995 566.499 62.5995C567.288 62.5995 567.975 62.7394 568.56 63.0192C569.148 63.2954 569.605 63.6792 569.932 64.1707C570.258 64.6621 570.421 65.2252 570.421 65.8601C570.421 66.2762 570.339 66.687 570.174 67.0923C570.013 67.4976 569.724 67.9478 569.308 68.4428C568.892 68.9342 568.305 69.5243 567.548 70.213L565.939 71.7895V71.8648H570.567V73.7695H562.711Z" fill="#94A3B8"/>
<path d="M253.167 107.725C253.167 96.3114 262.42 87.0586 273.834 87.0586H346.167C357.581 87.0586 366.834 96.3114 366.834 107.725V180.059C366.834 191.472 357.581 200.725 346.167 200.725H273.834C262.42 200.725 253.167 191.472 253.167 180.059V107.725Z" fill="#0F172A"/>
<path d="M288.042 116.767C293.749 116.767 298.375 121.393 298.375 127.1C298.375 132.807 293.749 137.433 288.042 137.433C282.335 137.433 277.709 132.807 277.709 127.1C277.709 121.393 282.335 116.767 288.042 116.767Z" fill="#0EA5E9"/>
<path d="M288.042 116.767C293.749 116.767 298.375 121.393 298.375 127.1C298.375 132.807 293.749 137.433 288.042 137.433C282.335 137.433 277.709 132.807 277.709 127.1C277.709 121.393 282.335 116.767 288.042 116.767Z" stroke="#38BDF8" stroke-width="2.58333"/>
<path d="M331.958 116.767C337.665 116.767 342.291 121.393 342.291 127.1C342.291 132.807 337.665 137.433 331.958 137.433C326.251 137.433 321.625 132.807 321.625 127.1C321.625 121.393 326.251 116.767 331.958 116.767Z" fill="#0EA5E9"/>
<path d="M331.958 116.767C337.665 116.767 342.291 121.393 342.291 127.1C342.291 132.807 337.665 137.433 331.958 137.433C326.251 137.433 321.625 132.807 321.625 127.1C321.625 121.393 326.251 116.767 331.958 116.767Z" stroke="#38BDF8" stroke-width="2.58333"/>
<mask id="path-9-inside-1_109_5061" fill="white">
<path d="M291.917 149.059H328.084C328.084 156.192 322.301 161.975 315.167 161.975H304.834C297.7 161.975 291.917 156.192 291.917 149.059Z"/>
</mask>
<path d="M291.917 149.059H328.084H291.917M330.667 149.059C330.667 157.619 323.727 164.559 315.167 164.559H304.834C296.273 164.559 289.334 157.619 289.334 149.059L294.5 149.059C294.5 154.766 299.127 159.392 304.834 159.392H315.167C320.874 159.392 325.5 154.766 325.5 149.059L330.667 149.059ZM304.834 164.559C296.273 164.559 289.334 157.619 289.334 149.059V149.059H294.5V149.059C294.5 154.766 299.127 159.392 304.834 159.392V164.559ZM330.667 149.059V149.059C330.667 157.619 323.727 164.559 315.167 164.559L315.167 159.392C320.874 159.392 325.5 154.766 325.5 149.059V149.059H330.667Z" fill="#0EA5E9" fill-opacity="0.5" mask="url(#path-9-inside-1_109_5061)"/>
<rect width="20.6667" height="15.5" transform="translate(299.667 205.891)" fill="#1E293B"/>
<path d="M255.75 222.036H364.25C369.6 222.036 373.937 226.374 373.938 231.724V397.058C373.937 402.408 369.6 406.745 364.25 406.745H255.75C250.4 406.745 246.063 402.408 246.062 397.058V231.724C246.063 226.374 250.4 222.036 255.75 222.036Z" fill="#F8FAFC"/>
<path d="M255.75 222.036H364.25C369.6 222.036 373.937 226.374 373.938 231.724V397.058C373.937 402.408 369.6 406.745 364.25 406.745H255.75C250.4 406.745 246.063 402.408 246.062 397.058V231.724C246.063 226.374 250.4 222.036 255.75 222.036Z" stroke="#E2E8F0" stroke-width="1.29167"/>
<path d="M246.708 227.85C246.708 224.997 249.021 222.684 251.875 222.684H422.375C425.228 222.684 427.541 224.997 427.541 227.85V230.434C427.541 233.287 425.228 235.6 422.375 235.6H251.875C249.021 235.6 246.708 233.287 246.708 230.434V227.85Z" fill="#1E293B"/>
<path d="M251.875 236.245H409.458C411.955 236.245 413.979 238.27 413.979 240.767V297.6C413.979 300.096 411.955 302.12 409.458 302.12H251.875C249.378 302.12 247.354 300.096 247.354 297.6V240.767C247.354 238.27 249.378 236.245 251.875 236.245Z" fill="white"/>
<path d="M251.875 236.245H409.458C411.955 236.245 413.979 238.27 413.979 240.767V297.6C413.979 300.096 411.955 302.12 409.458 302.12H251.875C249.378 302.12 247.354 300.096 247.354 297.6V240.767C247.354 238.27 249.378 236.245 251.875 236.245Z" stroke="#E2E8F0" stroke-width="1.29167"/>
<path d="M279 249.161C290.057 249.161 299.021 258.126 299.021 269.183C299.02 280.24 290.057 289.203 279 289.203C267.943 289.203 258.979 280.24 258.979 269.183C258.979 258.125 267.943 249.161 279 249.161Z" fill="#FEF3C7"/>
<path d="M279 249.161C290.057 249.161 299.021 258.126 299.021 269.183C299.02 280.24 290.057 289.203 279 289.203C267.943 289.203 258.979 280.24 258.979 269.183C258.979 258.125 267.943 249.161 279 249.161Z" stroke="#FCD34D" stroke-width="1.29167"/>
<path d="M266.083 282.427H291.876V256.634H266.083V282.427Z" fill="#0F172A"/>
<path d="M330.667 249.161C341.724 249.161 350.688 258.126 350.688 269.183C350.687 280.24 341.724 289.203 330.667 289.203C319.61 289.203 310.646 280.24 310.646 269.183C310.646 258.125 319.61 249.161 330.667 249.161Z" fill="#FEF3C7"/>
<path d="M330.667 249.161C341.724 249.161 350.688 258.126 350.688 269.183C350.687 280.24 341.724 289.203 330.667 289.203C319.61 289.203 310.646 280.24 310.646 269.183C310.646 258.125 319.61 249.161 330.667 249.161Z" stroke="#FCD34D" stroke-width="1.29167"/>
<path d="M317.75 282.427H343.543V256.634H317.75V282.427Z" fill="#0F172A"/>
<path d="M382.334 249.161C393.391 249.161 402.354 258.126 402.354 269.183C402.354 280.24 393.391 289.203 382.334 289.203C371.277 289.203 362.313 280.24 362.312 269.183C362.312 258.125 371.277 249.161 382.334 249.161Z" fill="#FEF3C7"/>
<path d="M382.334 249.161C393.391 249.161 402.354 258.126 402.354 269.183C402.354 280.24 393.391 289.203 382.334 289.203C371.277 289.203 362.313 280.24 362.312 269.183C362.312 258.125 371.277 249.161 382.334 249.161Z" stroke="#FCD34D" stroke-width="1.29167"/>
<path d="M369.417 282.427H395.21V256.634H369.417V282.427Z" fill="#0F172A"/>
<path d="M246.708 313.1C246.708 310.247 249.021 307.934 251.875 307.934H422.375C425.228 307.934 427.541 310.247 427.541 313.1V315.684C427.541 318.537 425.228 320.85 422.375 320.85H251.875C249.021 320.85 246.708 318.537 246.708 315.684V313.1Z" fill="#1E293B"/>
<path d="M251.875 321.495H409.458C411.955 321.495 413.979 323.52 413.979 326.017V382.85C413.979 385.346 411.955 387.37 409.458 387.37H251.875C249.378 387.37 247.354 385.346 247.354 382.85V326.017C247.354 323.52 249.378 321.495 251.875 321.495Z" fill="white"/>
<path d="M251.875 321.495H409.458C411.955 321.495 413.979 323.52 413.979 326.017V382.85C413.979 385.346 411.955 387.37 409.458 387.37H251.875C249.378 387.37 247.354 385.346 247.354 382.85V326.017C247.354 323.52 249.378 321.495 251.875 321.495Z" stroke="#E2E8F0" stroke-width="1.29167"/>
<path d="M304.834 334.411C315.891 334.411 324.854 343.376 324.854 354.433C324.854 365.49 315.891 374.453 304.834 374.453C293.777 374.453 284.813 365.49 284.812 354.433C284.812 343.375 293.777 334.411 304.834 334.411Z" fill="#FEF3C7"/>
<path d="M304.834 334.411C315.891 334.411 324.854 343.376 324.854 354.433C324.854 365.49 315.891 374.453 304.834 374.453C293.777 374.453 284.813 365.49 284.812 354.433C284.812 343.375 293.777 334.411 304.834 334.411Z" stroke="#FCD34D" stroke-width="1.29167"/>
<path d="M291.917 367.677H317.71V341.884H291.917V367.677Z" fill="#0F172A"/>
<path d="M356.5 334.411C367.557 334.411 376.521 343.376 376.521 354.433C376.52 365.49 367.557 374.453 356.5 374.453C345.443 374.453 336.479 365.49 336.479 354.433C336.479 343.375 345.443 334.411 356.5 334.411Z" fill="#FEF3C7"/>
<path d="M356.5 334.411C367.557 334.411 376.521 343.376 376.521 354.433C376.52 365.49 367.557 374.453 356.5 374.453C345.443 374.453 336.479 365.49 336.479 354.433C336.479 343.375 345.443 334.411 356.5 334.411Z" stroke="#FCD34D" stroke-width="1.29167"/>
<path d="M346.146 364.318H366.813V343.651H346.146V364.318Z" fill="#0F172A"/>
<path d="M246.708 398.35C246.708 395.497 249.021 393.184 251.875 393.184H422.375C425.228 393.184 427.541 395.497 427.541 398.35V400.934C427.541 403.787 425.228 406.1 422.375 406.1H251.875C249.021 406.1 246.708 403.787 246.708 400.934V398.35Z" fill="#1E293B"/>
<path d="M232.5 425.475C232.5 418.342 238.283 412.559 245.417 412.559H374.583C381.717 412.559 387.5 418.342 387.5 425.475V471.975C387.5 479.109 381.717 484.892 374.583 484.892H245.417C238.283 484.892 232.5 479.109 232.5 471.975V425.475Z" fill="#1E293B"/>
<path d="M253.167 484.891C253.167 482.038 255.48 479.725 258.334 479.725H284.167C287.02 479.725 289.334 482.038 289.334 484.891V490.058C289.334 492.911 287.02 495.225 284.167 495.225H258.334C255.48 495.225 253.167 492.911 253.167 490.058V484.891Z" fill="#0F172A"/>
<g opacity="0.406725">
<path d="M304.833 448.725C304.833 445.872 307.146 443.559 310 443.559C312.853 443.559 315.166 445.872 315.166 448.725C315.166 451.579 312.853 453.892 310 453.892C307.146 453.892 304.833 451.579 304.833 448.725Z" fill="#0EA5E9"/>
</g>
<path d="M330.667 484.891C330.667 482.038 332.98 479.725 335.834 479.725H361.667C364.52 479.725 366.834 482.038 366.834 484.891V490.058C366.834 492.911 364.52 495.225 361.667 495.225H335.834C332.98 495.225 330.667 492.911 330.667 490.058V484.891Z" fill="#0F172A"/>
<g clip-path="url(#clip0_109_5061)">
<path d="M47.792 536.042C47.792 528.908 53.575 523.125 60.7087 523.125H559.292C566.426 523.125 572.209 528.908 572.209 536.042V594.167C572.209 601.3 566.426 607.083 559.292 607.083H60.7086C53.575 607.083 47.792 601.3 47.792 594.167V536.042Z" fill="#E2E8F0"/>
<rect width="174.375" height="83.9583" transform="translate(47.792 523.125)" fill="white"/>
<path d="M103.008 560.395V556.598L110.25 545.207H113.695V550.27H111.726L107.824 556.457V556.598H118.511V560.395H103.008ZM111.761 563.207V559.234L111.867 557.582V545.207H116.437V563.207H111.761ZM128.401 563.699C126.766 563.693 125.354 563.315 124.165 562.565C122.975 561.815 122.058 560.734 121.414 559.322C120.769 557.91 120.45 556.217 120.456 554.242C120.462 552.262 120.784 550.58 121.423 549.198C122.067 547.815 122.981 546.763 124.165 546.042C125.354 545.322 126.766 544.961 128.401 544.961C130.036 544.961 131.448 545.325 132.637 546.051C133.827 546.772 134.744 547.824 135.388 549.206C136.033 550.589 136.352 552.268 136.346 554.242C136.346 556.229 136.024 557.928 135.379 559.34C134.735 560.752 133.818 561.833 132.628 562.583C131.445 563.327 130.036 563.699 128.401 563.699ZM128.401 559.727C129.245 559.727 129.936 559.287 130.475 558.408C131.02 557.524 131.29 556.135 131.284 554.242C131.284 553.006 131.161 551.995 130.915 551.21C130.669 550.425 130.329 549.845 129.895 549.47C129.462 549.089 128.964 548.899 128.401 548.899C127.557 548.899 126.869 549.326 126.336 550.182C125.802 551.037 125.53 552.391 125.518 554.242C125.512 555.502 125.633 556.539 125.879 557.354C126.125 558.162 126.465 558.76 126.898 559.147C127.338 559.533 127.839 559.727 128.401 559.727ZM143.034 560.008L143.07 554.242H143.702L146.972 549.707H152.421L146.937 556.774H145.566L143.034 560.008ZM138.675 563.207V545.207H143.527V563.207H138.675ZM147.007 563.207L143.913 557.863L147.077 554.418L152.562 563.207H147.007ZM159.632 568.551C158.279 568.551 157.119 568.357 156.152 567.971C155.191 567.59 154.444 567.062 153.911 566.389C153.383 565.721 153.087 564.953 153.023 564.086H157.699C157.746 564.373 157.863 564.604 158.05 564.78C158.238 564.956 158.478 565.082 158.771 565.158C159.07 565.24 159.404 565.281 159.773 565.281C160.4 565.281 160.918 565.129 161.329 564.824C161.745 564.52 161.953 563.969 161.953 563.172V560.887H161.812C161.636 561.344 161.367 561.733 161.003 562.056C160.64 562.372 160.204 562.615 159.694 562.785C159.184 562.949 158.624 563.031 158.015 563.031C157.054 563.031 156.169 562.809 155.361 562.363C154.558 561.918 153.914 561.212 153.427 560.245C152.947 559.278 152.707 558.016 152.707 556.457C152.707 554.828 152.959 553.504 153.462 552.485C153.972 551.465 154.628 550.718 155.431 550.243C156.24 549.769 157.089 549.532 157.98 549.532C158.648 549.532 159.234 549.649 159.738 549.883C160.242 550.112 160.664 550.419 161.003 550.806C161.343 551.187 161.601 551.606 161.777 552.063H161.882V549.707H166.734V563.172C166.734 564.314 166.438 565.284 165.846 566.081C165.26 566.884 164.434 567.496 163.368 567.918C162.301 568.34 161.056 568.551 159.632 568.551ZM159.808 559.586C160.253 559.586 160.634 559.463 160.951 559.217C161.273 558.965 161.519 558.608 161.689 558.145C161.865 557.676 161.953 557.113 161.953 556.457C161.953 555.789 161.865 555.218 161.689 554.743C161.519 554.263 161.273 553.897 160.951 553.645C160.634 553.387 160.253 553.258 159.808 553.258C159.363 553.258 158.982 553.387 158.666 553.645C158.355 553.897 158.115 554.263 157.945 554.743C157.781 555.218 157.699 555.789 157.699 556.457C157.699 557.125 157.781 557.693 157.945 558.162C158.115 558.625 158.355 558.98 158.666 559.226C158.982 559.466 159.363 559.586 159.808 559.586Z" fill="#1849C6"/>
<path d="M102.276 575.342H103.66L106.914 583.289H107.026L110.28 575.342H111.663V584.916H110.579V577.642H110.485L107.493 584.916H106.446L103.454 577.642H103.361V584.916H102.276V575.342ZM114.381 584.916H113.165L116.681 575.342H117.878L121.393 584.916H120.178L117.317 576.856H117.242L114.381 584.916ZM114.83 581.176H119.729V582.205H114.83V581.176ZM123.445 575.342L125.914 579.325H125.988L128.457 575.342H129.822L126.811 580.129L129.822 584.916H128.457L125.988 581.008H125.914L123.445 584.916H122.08L125.166 580.129L122.08 575.342H123.445ZM135.033 584.916V575.342H136.193V583.888H140.643V584.916H135.033ZM150.144 580.129C150.144 581.139 149.961 582.011 149.597 582.747C149.232 583.482 148.732 584.05 148.096 584.449C147.46 584.847 146.734 585.047 145.918 585.047C145.101 585.047 144.375 584.847 143.739 584.449C143.103 584.05 142.603 583.482 142.238 582.747C141.874 582.011 141.691 581.139 141.691 580.129C141.691 579.119 141.874 578.246 142.238 577.511C142.603 576.775 143.103 576.208 143.739 575.809C144.375 575.41 145.101 575.211 145.918 575.211C146.734 575.211 147.46 575.41 148.096 575.809C148.732 576.208 149.232 576.775 149.597 577.511C149.961 578.246 150.144 579.119 150.144 580.129ZM149.022 580.129C149.022 579.3 148.883 578.6 148.606 578.03C148.331 577.46 147.959 577.028 147.488 576.735C147.021 576.442 146.497 576.295 145.918 576.295C145.338 576.295 144.813 576.442 144.342 576.735C143.875 577.028 143.502 577.46 143.225 578.03C142.951 578.6 142.813 579.3 142.813 580.129C142.813 580.958 142.951 581.658 143.225 582.228C143.502 582.798 143.875 583.23 144.342 583.523C144.813 583.816 145.338 583.962 145.918 583.962C146.497 583.962 147.021 583.816 147.488 583.523C147.959 583.23 148.331 582.798 148.606 582.228C148.883 581.658 149.022 580.958 149.022 580.129ZM152.036 584.916H150.82L154.336 575.342H155.533L159.048 584.916H157.833L154.972 576.856H154.897L152.036 584.916ZM152.485 581.176H157.384V582.205H152.485V581.176ZM163.494 584.916H160.54V575.342H163.625C164.554 575.342 165.348 575.533 166.009 575.917C166.67 576.297 167.176 576.844 167.528 577.558C167.881 578.268 168.057 579.119 168.057 580.11C168.057 581.108 167.879 581.966 167.524 582.686C167.169 583.403 166.651 583.955 165.972 584.341C165.292 584.724 164.466 584.916 163.494 584.916ZM161.699 583.888H163.419C164.211 583.888 164.867 583.735 165.387 583.429C165.908 583.124 166.296 582.689 166.551 582.125C166.807 581.561 166.935 580.889 166.935 580.11C166.935 579.337 166.809 578.672 166.556 578.114C166.304 577.553 165.927 577.123 165.425 576.824C164.923 576.521 164.298 576.37 163.55 576.37H161.699V583.888Z" fill="#94A3B8"/>
<rect width="174.375" height="83.9583" transform="translate(223.071 523.125)" fill="white"/>
<path d="M296.857 545.232V562.207H292.249V549.476H292.149L288.436 551.697V547.785L292.613 545.232H296.857ZM300.177 559.555V555.974L307.007 545.232H310.256V550.006H308.399L304.719 555.841V555.974H314.798V559.555H300.177ZM308.432 562.207V558.461L308.532 556.902V545.232H312.842V562.207H308.432ZM316.698 562.207V545.232H321.307V551.863H327.407V545.232H332.015V562.207H327.407V555.576H321.307V562.207H316.698Z" fill="#1849C6"/>
<path d="M281.949 584.916V575.172H285.355C286.034 575.172 286.594 575.29 287.035 575.525C287.476 575.756 287.804 576.069 288.019 576.462C288.235 576.852 288.343 577.285 288.343 577.761C288.343 578.179 288.268 578.525 288.119 578.798C287.974 579.071 287.78 579.286 287.539 579.445C287.301 579.603 287.043 579.721 286.763 579.797V579.892C287.062 579.911 287.361 580.016 287.663 580.206C287.964 580.396 288.216 580.669 288.419 581.024C288.622 581.38 288.724 581.814 288.724 582.328C288.724 582.816 288.613 583.256 288.391 583.646C288.169 584.036 287.818 584.345 287.339 584.573C286.86 584.802 286.237 584.916 285.469 584.916H281.949ZM283.129 583.869H285.469C286.24 583.869 286.787 583.72 287.111 583.422C287.437 583.121 287.601 582.756 287.601 582.328C287.601 581.998 287.517 581.694 287.349 581.414C287.181 581.132 286.941 580.907 286.63 580.739C286.319 580.568 285.952 580.482 285.527 580.482H283.129V583.869ZM283.129 579.454H285.317C285.672 579.454 285.993 579.385 286.278 579.245C286.567 579.105 286.795 578.909 286.963 578.655C287.135 578.401 287.22 578.103 287.22 577.761C287.22 577.332 287.071 576.969 286.773 576.671C286.475 576.37 286.002 576.219 285.355 576.219H283.129V579.454ZM291.062 584.916H289.825L293.403 575.172H294.621L298.198 584.916H296.961L294.05 576.714H293.974L291.062 584.916ZM291.519 581.11H296.505V582.157H291.519V581.11ZM298.045 576.219V575.172H305.353V576.219H302.289V584.916H301.109V576.219H298.045ZM306.641 576.219V575.172H313.948V576.219H310.884V584.916H309.705V576.219H306.641ZM315.769 584.916V575.172H321.65V576.219H316.949V579.511H321.345V580.558H316.949V583.869H321.726V584.916H315.769ZM323.776 584.916V575.172H327.068C327.83 575.172 328.455 575.303 328.943 575.563C329.431 575.82 329.793 576.173 330.028 576.624C330.262 577.074 330.38 577.586 330.38 578.16C330.38 578.734 330.262 579.243 330.028 579.687C329.793 580.131 329.433 580.48 328.948 580.734C328.462 580.985 327.842 581.11 327.088 581.11H324.423V580.044H327.049C327.57 580.044 327.988 579.968 328.305 579.816C328.626 579.664 328.857 579.448 329 579.169C329.146 578.887 329.219 578.55 329.219 578.16C329.219 577.77 329.146 577.429 329 577.137C328.854 576.846 328.621 576.62 328.301 576.462C327.98 576.3 327.557 576.219 327.03 576.219H324.956V584.916H323.776ZM328.363 580.539L330.76 584.916H329.39L327.03 580.539H328.363ZM331.181 575.172H332.533L335.235 579.721H335.349L338.051 575.172H339.403L335.882 580.901V584.916H334.702V580.901L331.181 575.172Z" fill="#94A3B8"/>
<rect width="174.375" height="83.9583" transform="translate(398.221 523.125)" fill="white"/>
<path d="M466.089 563.707C464.429 563.701 462.995 563.317 461.787 562.556C460.58 561.794 459.648 560.696 458.994 559.262C458.34 557.829 458.015 556.109 458.021 554.104C458.027 552.093 458.354 550.386 459.003 548.981C459.657 547.577 460.586 546.509 461.787 545.778C462.995 545.046 464.429 544.68 466.089 544.68C467.749 544.68 469.183 545.049 470.391 545.786C471.598 546.518 472.529 547.586 473.184 548.99C473.838 550.394 474.163 552.099 474.157 554.104C474.157 556.121 473.829 557.846 473.175 559.28C472.521 560.714 471.589 561.812 470.382 562.573C469.18 563.329 467.749 563.707 466.089 563.707ZM466.089 559.673C466.946 559.673 467.648 559.227 468.195 558.334C468.748 557.436 469.022 556.026 469.016 554.104C469.016 552.849 468.891 551.822 468.641 551.025C468.391 550.228 468.046 549.639 467.606 549.258C467.166 548.871 466.66 548.678 466.089 548.678C465.232 548.678 464.533 549.112 463.992 549.981C463.45 550.85 463.174 552.224 463.162 554.104C463.156 555.383 463.278 556.436 463.528 557.263C463.777 558.084 464.123 558.691 464.563 559.084C465.009 559.477 465.518 559.673 466.089 559.673ZM478.389 563.493C477.699 563.493 477.107 563.252 476.613 562.77C476.125 562.282 475.884 561.69 475.89 560.994C475.884 560.315 476.125 559.735 476.613 559.253C477.107 558.772 477.699 558.531 478.389 558.531C479.044 558.531 479.621 558.772 480.12 559.253C480.626 559.735 480.882 560.315 480.888 560.994C480.882 561.458 480.76 561.88 480.522 562.261C480.29 562.636 479.987 562.936 479.612 563.162C479.237 563.383 478.829 563.493 478.389 563.493ZM490.848 563.457C489.444 563.457 488.197 563.21 487.108 562.716C486.025 562.216 485.172 561.529 484.547 560.655C483.928 559.78 483.613 558.775 483.601 557.638H488.42C488.438 558.269 488.682 558.772 489.152 559.146C489.628 559.521 490.193 559.709 490.848 559.709C491.353 559.709 491.8 559.602 492.186 559.387C492.573 559.167 492.877 558.858 493.097 558.459C493.317 558.061 493.424 557.597 493.418 557.067C493.424 556.532 493.317 556.067 493.097 555.675C492.877 555.276 492.573 554.97 492.186 554.756C491.8 554.535 491.353 554.425 490.848 554.425C490.324 554.425 489.839 554.553 489.393 554.809C488.953 555.059 488.628 555.407 488.42 555.853L484.065 554.997L484.779 544.93H497.059V548.892H488.849L488.492 552.926H488.599C488.884 552.373 489.378 551.915 490.08 551.552C490.782 551.183 491.597 550.998 492.525 550.998C493.614 550.998 494.584 551.251 495.435 551.757C496.292 552.263 496.967 552.962 497.461 553.854C497.96 554.741 498.207 555.764 498.201 556.924C498.207 558.197 497.904 559.328 497.291 560.315C496.684 561.297 495.831 562.068 494.73 562.627C493.629 563.18 492.335 563.457 490.848 563.457ZM512.907 553.961H508.373C508.349 553.682 508.251 553.441 508.079 553.238C507.906 553.036 507.683 552.881 507.409 552.774C507.142 552.661 506.844 552.605 506.517 552.605C506.094 552.605 505.731 552.682 505.428 552.837C505.125 552.991 504.976 553.212 504.982 553.497C504.976 553.699 505.062 553.887 505.241 554.059C505.425 554.232 505.779 554.366 506.303 554.461L509.087 554.961C510.491 555.217 511.535 555.648 512.22 556.255C512.91 556.856 513.258 557.662 513.264 558.673C513.258 559.649 512.966 560.497 512.389 561.217C511.818 561.931 511.036 562.484 510.042 562.877C509.054 563.264 507.927 563.457 506.66 563.457C504.565 563.457 502.926 563.029 501.742 562.172C500.564 561.315 499.907 560.185 499.77 558.78H504.661C504.726 559.215 504.94 559.551 505.303 559.789C505.672 560.021 506.136 560.137 506.695 560.137C507.147 560.137 507.519 560.06 507.811 559.905C508.108 559.75 508.26 559.53 508.266 559.245C508.26 558.983 508.129 558.775 507.873 558.62C507.623 558.465 507.231 558.34 506.695 558.245L504.268 557.817C502.87 557.573 501.823 557.109 501.126 556.424C500.43 555.74 500.085 554.86 500.091 553.783C500.085 552.831 500.335 552.025 500.841 551.364C501.353 550.698 502.081 550.192 503.027 549.847C503.979 549.496 505.107 549.321 506.41 549.321C508.391 549.321 509.953 549.731 511.095 550.552C512.243 551.373 512.847 552.51 512.907 553.961Z" fill="#1849C6"/>
<path d="M452.523 584.916V575.507H455.703C456.438 575.507 457.041 575.632 457.513 575.884C457.984 576.132 458.334 576.473 458.56 576.908C458.787 577.343 458.9 577.838 458.9 578.392C458.9 578.946 458.787 579.438 458.56 579.867C458.334 580.296 457.986 580.633 457.517 580.878C457.049 581.12 456.45 581.241 455.721 581.241H453.148V580.211H455.684C456.187 580.211 456.591 580.138 456.897 579.991C457.206 579.844 457.43 579.636 457.568 579.366C457.709 579.094 457.779 578.769 457.779 578.392C457.779 578.015 457.709 577.686 457.568 577.404C457.427 577.123 457.202 576.905 456.893 576.752C456.583 576.596 456.174 576.518 455.666 576.518H453.663V584.916H452.523ZM456.952 580.689L459.268 584.916H457.945L455.666 580.689H456.952ZM460.799 584.916V575.507H466.477V576.518H461.938V579.697H466.183V580.708H461.938V583.905H466.551V584.916H460.799ZM473.677 577.859C473.622 577.394 473.398 577.032 473.006 576.775C472.614 576.518 472.133 576.389 471.563 576.389C471.147 576.389 470.782 576.456 470.47 576.591C470.16 576.726 469.919 576.911 469.744 577.147C469.572 577.383 469.487 577.651 469.487 577.951C469.487 578.202 469.546 578.418 469.666 578.599C469.788 578.777 469.945 578.925 470.134 579.045C470.324 579.161 470.523 579.257 470.732 579.334C470.94 579.407 471.131 579.467 471.306 579.513L472.262 579.77C472.507 579.835 472.779 579.924 473.079 580.037C473.383 580.15 473.672 580.305 473.948 580.501C474.226 580.694 474.456 580.942 474.637 581.245C474.818 581.548 474.908 581.921 474.908 582.362C474.908 582.87 474.775 583.329 474.508 583.74C474.245 584.15 473.859 584.476 473.35 584.718C472.845 584.96 472.231 585.081 471.508 585.081C470.834 585.081 470.251 584.973 469.758 584.755C469.268 584.538 468.882 584.235 468.6 583.846C468.321 583.457 468.164 583.005 468.127 582.49H469.303C469.334 582.846 469.453 583.14 469.661 583.372C469.873 583.602 470.139 583.774 470.461 583.887C470.785 583.997 471.134 584.052 471.508 584.052C471.943 584.052 472.334 583.982 472.68 583.841C473.026 583.697 473.3 583.498 473.502 583.244C473.704 582.986 473.805 582.686 473.805 582.343C473.805 582.031 473.718 581.777 473.543 581.581C473.369 581.385 473.139 581.225 472.854 581.103C472.569 580.98 472.262 580.873 471.931 580.781L470.773 580.45C470.038 580.239 469.456 579.937 469.027 579.545C468.598 579.153 468.384 578.64 468.384 578.006C468.384 577.479 468.526 577.02 468.811 576.628C469.099 576.233 469.485 575.927 469.969 575.709C470.456 575.489 471 575.378 471.6 575.378C472.206 575.378 472.746 575.487 473.217 575.704C473.689 575.919 474.063 576.213 474.338 576.587C474.617 576.96 474.764 577.384 474.779 577.859H473.677ZM476.781 584.916V575.507H479.961C480.699 575.507 481.302 575.64 481.771 575.907C482.242 576.17 482.592 576.527 482.818 576.977C483.045 577.427 483.158 577.93 483.158 578.484C483.158 579.038 483.045 579.542 482.818 579.996C482.595 580.449 482.248 580.81 481.78 581.08C481.311 581.346 480.711 581.479 479.979 581.479H477.7V580.469H479.942C480.448 580.469 480.853 580.381 481.16 580.207C481.466 580.032 481.688 579.796 481.826 579.499C481.967 579.199 482.037 578.861 482.037 578.484C482.037 578.107 481.967 577.77 481.826 577.473C481.688 577.176 481.464 576.943 481.155 576.775C480.846 576.603 480.435 576.518 479.924 576.518H477.921V584.916H476.781ZM492.933 580.211C492.933 581.204 492.753 582.061 492.395 582.784C492.037 583.507 491.545 584.065 490.92 584.457C490.295 584.849 489.582 585.045 488.779 585.045C487.977 585.045 487.263 584.849 486.638 584.457C486.014 584.065 485.522 583.507 485.164 582.784C484.805 582.061 484.626 581.204 484.626 580.211C484.626 579.219 484.805 578.361 485.164 577.639C485.522 576.916 486.014 576.358 486.638 575.966C487.263 575.574 487.977 575.378 488.779 575.378C489.582 575.378 490.295 575.574 490.92 575.966C491.545 576.358 492.037 576.916 492.395 577.639C492.753 578.361 492.933 579.219 492.933 580.211ZM491.83 580.211C491.83 579.397 491.694 578.709 491.421 578.149C491.151 577.588 490.785 577.164 490.323 576.876C489.864 576.588 489.349 576.444 488.779 576.444C488.21 576.444 487.693 576.588 487.231 576.876C486.772 577.164 486.406 577.588 486.133 578.149C485.863 578.709 485.729 579.397 485.729 580.211C485.729 581.026 485.863 581.714 486.133 582.274C486.406 582.835 486.772 583.259 487.231 583.547C487.693 583.835 488.21 583.979 488.779 583.979C489.349 583.979 489.864 583.835 490.323 583.547C490.785 583.259 491.151 582.835 491.421 582.274C491.694 581.714 491.83 581.026 491.83 580.211ZM502.309 575.507V584.916H501.207L496.08 577.528H495.988V584.916H494.848V575.507H495.951L501.097 582.913H501.188V575.507H502.309ZM509.735 577.859C509.68 577.394 509.456 577.032 509.064 576.775C508.672 576.518 508.191 576.389 507.622 576.389C507.205 576.389 506.841 576.456 506.528 576.591C506.219 576.726 505.977 576.911 505.802 577.147C505.631 577.383 505.545 577.651 505.545 577.951C505.545 578.202 505.605 578.418 505.724 578.599C505.847 578.777 506.003 578.925 506.193 579.045C506.383 579.161 506.582 579.257 506.79 579.334C506.998 579.407 507.19 579.467 507.364 579.513L508.32 579.77C508.565 579.835 508.838 579.924 509.138 580.037C509.441 580.15 509.73 580.305 510.006 580.501C510.285 580.694 510.515 580.942 510.695 581.245C510.876 581.548 510.966 581.921 510.966 582.362C510.966 582.87 510.833 583.329 510.567 583.74C510.303 584.15 509.917 584.476 509.409 584.718C508.903 584.96 508.289 585.081 507.567 585.081C506.893 585.081 506.309 584.973 505.816 584.755C505.326 584.538 504.94 584.235 504.658 583.846C504.38 583.457 504.222 583.005 504.185 582.49H505.361C505.392 582.846 505.511 583.14 505.72 583.372C505.931 583.602 506.197 583.774 506.519 583.887C506.844 583.997 507.193 584.052 507.567 584.052C508.001 584.052 508.392 583.982 508.738 583.841C509.084 583.697 509.358 583.498 509.56 583.244C509.763 582.986 509.864 582.686 509.864 582.343C509.864 582.031 509.776 581.777 509.602 581.581C509.427 581.385 509.197 581.225 508.913 581.103C508.628 580.98 508.32 580.873 507.989 580.781L506.831 580.45C506.096 580.239 505.514 579.937 505.086 579.545C504.657 579.153 504.442 578.64 504.442 578.006C504.442 577.479 504.585 577.02 504.87 576.628C505.158 576.233 505.543 575.927 506.027 575.709C506.514 575.489 507.058 575.378 507.658 575.378C508.265 575.378 508.804 575.487 509.276 575.704C509.747 575.919 510.121 576.213 510.397 576.587C510.675 576.96 510.822 577.384 510.838 577.859H509.735ZM512.84 584.916V575.507H518.518V576.518H513.979V579.697H518.224V580.708H513.979V583.905H518.592V584.916H512.84Z" fill="#94A3B8"/>
</g>
<defs>
<clipPath id="clip0_109_5061">
<path d="M47.792 536.042C47.792 528.908 53.575 523.125 60.7087 523.125H559.292C566.426 523.125 572.209 528.908 572.209 536.042V594.167C572.209 601.3 566.426 607.083 559.292 607.083H60.7086C53.575 607.083 47.792 601.3 47.792 594.167V536.042Z" fill="white"/>
</clipPath>
</defs>
</svg>
